<svg id="Layer_2" data-name="Layer 2" xmlns="http://www.w3.org/2000/svg" viewBox="0 0 921.14 259.83"><defs><style>.cls-1,.cls-2{fill:#fff;}.cls-1,.cls-4{stroke:#000;}.cls-1,.cls-2,.cls-3,.cls-4{stroke-miterlimit:10;}.cls-2{stroke:#231f20;}.cls-3{fill:#231f20;stroke:#fff;}.cls-4{fill:none;}</style></defs><title>features</title><path d="M102,385.5S179.5,260,258,388c0,0-10.95-63-78-63C142.5,325,107,365.5,102,385.5Z" transform="translate(-2.36 -177.8)"/><path d="M668.53,385.5S746,260,824.53,388c0,0-10.95-63-78-63C709,325,673.53,365.5,668.53,385.5Z" transform="translate(-2.36 -177.8)"/><path d="M50,367s13.5-7.5,15-4-14.5,44-18,44-27,3.5-24.5,0S43.5,374,50,367Z" transform="translate(-2.36 -177.8)"/><path d="M94,303s-49.5,14.5-53.5,19-9,10.5-7,11.5,6.41-2,10.21,0,9.29,12,15.29,10S98,311,94,303Z" transform="translate(-2.36 -177.8)"/><path d="M335.5,273s278.5-3.5,302-10.5S694,240,693,236.5,602.5,199,577.5,199s-93-7.5-136.5,9S335.5,273,335.5,273Z" transform="translate(-2.36 -177.8)"/><path d="M848.5,273c8.83-3,43.5-2.33,47,0s0,23,0,23-6-1.5-6,2.5-4,13-9,11S839.67,276,848.5,273Z" transform="translate(-2.36 -177.8)"/><path d="M437,197.3s-4.5-5.3-8-4.8-105.5,44.5-137,76h31S429,197.6,437,197.3Z" transform="translate(-2.36 -177.8)"/><path d="M320.5,277.5s-98,8.5-93,9.5,19,8.5,26.5,8.5h55s-57.5,5.5-61.5,5S213.5,292,222,286,320.5,277.5,320.5,277.5Z" transform="translate(-2.36 -177.8)"/><path d="M917.5,356.5s-19.5,47-22,51,17-4,17-4S924,385,917.5,356.5Z" transform="translate(-2.36 -177.8)"/><path d="M836,268.5s-86-1.5-94-4-39.5,8.5-39.5,8.5,30-4.87,35-4.43S836,268.5,836,268.5Z" transform="translate(-2.36 -177.8)"/><path d="M919.49,350.5v-24L902,303V255.5s-2.5-4.5-6.5-5-51.5-.5-62-3-26-7-26-7l-7,4S669,198.1,656,197.3,595.5,179,536.5,183s-95.5,9.47-95.5,9.47L434.5,190s45-14,104-12,93.5,4.5,125,12,146,42.8,148.5,45.15,30,8.85,36.5,8.35,42,1,47,2,12.27-.5,11.88,16,0,42,0,42l16.12,19S921.48,344.5,919.49,350.5Z" transform="translate(-2.36 -177.8)"/><path d="M80,429.5S8,421,10.5,416s12.63-14.5,11.81-18.5-7.81-47-5.81-53.74,1-19,12.5-20.38S79.5,296,151,283s128-14.5,134.5-14.5,9-8,9-8-127.56,12.5-142,17S32.5,316.5,26,319,9.37,333.5,10.44,341.5,19,397.5,17,400-1,417.5,3,420,80,429.5,80,429.5Z" transform="translate(-2.36 -177.8)"/><path class="cls-1" d="M364.5,264.13S411.67,223,446.33,215,412.67,224.59,364.5,264.13Z" transform="translate(-2.36 -177.8)"/><path class="cls-2" d="M33,400s9.46-12.5,15.46-25.5c0,0,10.87-6.5,9.93-3.5s-12,27.5-14.72,29S33,400,33,400Z" transform="translate(-2.36 -177.8)"/><path class="cls-1" d="M589,213.11V260.5S600.5,227.22,589,213.11Z" transform="translate(-2.36 -177.8)"/><path class="cls-3" d="M270.5,432S603,434,660,432,461,444.5,270.5,432Z" transform="translate(-2.36 -177.8)"/><path class="cls-3" d="M879.49,415S858,426,840,429.5,867,434,879.49,415Z" transform="translate(-2.36 -177.8)"/><path class="cls-1" d="M872,278.33s11.18.14,7.85,16.2S880.41,280.92,872,278.33Z" transform="translate(-2.36 -177.8)"/><path class="cls-1" d="M61.75,317.75c1.94,3,3.26,17,0,17S48,323.38,61.75,317.75Z" transform="translate(-2.36 -177.8)"/><line class="cls-4" x1="41.35" y1="205.89" x2="56.13" y2="200.2"/><line class="cls-4" x1="35.84" y1="214.82" x2="52.49" y2="207.63"/><path d="M254.33,286.67S275,283,284.67,285,272.76,287.78,254.33,286.67Z" transform="translate(-2.36 -177.8)"/><path d="M263.3,291.28s20.66-3.67,30.33-1.67S281.72,292.4,263.3,291.28Z" transform="translate(-2.36 -177.8)"/><path d="M88.5,354s-25.5,40.5-17,58S61.82,416.84,88.5,354Z" transform="translate(-2.36 -177.8)"/><path d="M866,362.07s23.11-17.57,31.06-27.32S894,353.14,866,362.07Z" transform="translate(-2.36 -177.8)"/><path class="cls-3" d="M600,306s49.11,45-8.44,109C591.56,415,637,372,600,306Z" transform="translate(-2.36 -177.8)"/><path class="cls-3" d="M574,408.56S413,418,342,415C342,415,476,411.11,574,408.56Z" transform="translate(-2.36 -177.8)"/><path class="cls-3" d="M331,291.79s-30,77.45,0,116.83C331,408.62,308,389.58,331,291.79Z" transform="translate(-2.36 -177.8)"/></svg>