<svg id="Layer_2" data-name="Layer 2" xmlns="http://www.w3.org/2000/svg" viewBox="0 0 784.5 468.8"><defs><style>.cls-1,.cls-2,.cls-4,.cls-5{fill:#fff;}.cls-2{stroke:#000;}.cls-2,.cls-4,.cls-5,.cls-6{stroke-miterlimit:10;}.cls-3{fill:#231f20;}.cls-4,.cls-5,.cls-6{stroke:#fff;}.cls-4{stroke-width:3.49px;}.cls-5,.cls-6{stroke-width:0.25px;}</style></defs><title>headlights</title><path class="cls-1" d="M70.36,253.05s7.9,11.47,0,17.62S91.86,262.82,70.36,253.05Z" transform="translate(-3.75 -19.54)"/><path d="M3.86,373.19s9.5,83.5,18,86.5,58.5,8,86,8c13.5,0-62.5-92.5-67-94.5s-30-11-34-8S3.86,373.19,3.86,373.19Z" transform="translate(-3.75 -19.54)"/><path class="cls-1" d="M10.86,370.69s2,40.5,4,41,17-6.5,20.5-6.5,28,5,27.5,3.5-16.5-27-23.5-31S17.86,368.19,10.86,370.69Z" transform="translate(-3.75 -19.54)"/><circle class="cls-2" cx="42.11" cy="415.85" r="19.25"/><path d="M36.86,244.19s-38,30.5-10.25,62.5,86.75-11.5,86.75-11.5-49.5,35.5-80,8S36.86,244.19,36.86,244.19Z" transform="translate(-3.75 -19.54)"/><path d="M106.86,304.19h91.5s-17-16-24.5-20.5-115-39.5-126-39.5l124.5,44.5.5,12-13,.5s-52-21.75-54-19.87-19.5,24.37-24,25.37,31.5-20,34-16.5S106.86,304.19,106.86,304.19Z" transform="translate(-3.75 -19.54)"/><circle cx="64.11" cy="265.15" r="15.5"/><path d="M28.86,275.46s-6.51,28.73,27.75,35.23C56.61,310.69,31.86,302.72,28.86,275.46Z" transform="translate(-3.75 -19.54)"/><path d="M755.14,244.19s38,30.5,10.25,62.5-86.75-11.5-86.75-11.5,49.5,35.5,80,8S755.14,244.19,755.14,244.19Z" transform="translate(-3.75 -19.54)"/><path d="M685.14,304.19h-91.5s17-16,24.5-20.5,115-39.5,126-39.5l-124.5,44.5-.5,12,13,.5s52-21.75,54-19.87,19.5,24.37,24,25.37-31.5-20-34-16.5S685.14,304.19,685.14,304.19Z" transform="translate(-3.75 -19.54)"/><circle cx="720.39" cy="265.15" r="15.5"/><path d="M763.14,275.46s6.51,28.73-27.75,35.23C735.39,310.69,760.14,302.72,763.14,275.46Z" transform="translate(-3.75 -19.54)"/><path d="M788.14,373.19s-9.5,83.5-18,86.5-58.5,8-86,8c-13.5,0,62.5-92.5,67-94.5s30-11,34-8S788.14,373.19,788.14,373.19Z" transform="translate(-3.75 -19.54)"/><path class="cls-1" d="M781.14,370.69s-2,40.5-4,41-17-6.5-20.5-6.5-28,5-27.5,3.5,16.5-27,23.5-31S774.14,368.19,781.14,370.69Z" transform="translate(-3.75 -19.54)"/><circle class="cls-2" cx="742.39" cy="415.85" r="19.25"/><path d="M397.36,374.36s-163.33-8-175.33,0-68,75.33-44,87.33,219.33,14,219.33,14" transform="translate(-3.75 -19.54)"/><path d="M393.36,374.36s163.33-8,175.33,0,68,75.33,44,87.33-219.33,14-219.33,14" transform="translate(-3.75 -19.54)"/><path d="M709.36,175.69c-398-31-628,0-628,0s31-120,87-131,340.92-25.71,437,0C676.36,63.69,709.36,175.69,709.36,175.69Z" transform="translate(-3.75 -19.54)"/><path class="cls-1" d="M70.36,275.46s7.9,11.47,0,17.61S91.86,285.22,70.36,275.46Z" transform="translate(-3.75 -19.54)"/><path class="cls-1" d="M722.75,275.46s-7.9,11.47,0,17.61S701.25,285.22,722.75,275.46Z" transform="translate(-3.75 -19.54)"/><path d="M39.8,426.19s-7.5,8.5,0,20S20.3,426.69,39.8,426.19Z" transform="translate(-3.75 -19.54)"/><path d="M752.2,426.19s7.5,8.5,0,20S771.7,426.69,752.2,426.19Z" transform="translate(-3.75 -19.54)"/><line x1="4.19" y1="357.24" x2="45.05" y2="366.63"/><path class="cls-3" d="M7.94,376.78c3.49.38,7,1,10.38,1.59s6.86,1.37,10.27,2.13,6.8,1.63,10.17,2.56,6.72,1.92,10,3.11c-3.5-.37-7-.94-10.39-1.58s-6.86-1.37-10.27-2.14-6.79-1.62-10.16-2.56S11.25,378,7.94,376.78Z" transform="translate(-3.75 -19.54)"/><line x1="0.09" y1="362.15" x2="52.82" y2="374.27"/><path class="cls-3" d="M3.84,381.69c4.49.61,8.93,1.41,13.36,2.27s8.83,1.83,13.23,2.82,8.77,2.08,13.13,3.24,8.71,2.37,13,3.79c-4.49-.6-8.93-1.4-13.36-2.27s-8.83-1.82-13.23-2.81-8.77-2.08-13.13-3.25S8.14,383.11,3.84,381.69Z" transform="translate(-3.75 -19.54)"/><line x1="7.11" y1="368.75" x2="54.96" y2="379.75"/><path class="cls-3" d="M10.86,388.3c4.08.51,8.11,1.21,12.14,2s8,1.63,12,2.53,8,1.89,11.91,3,7.89,2.19,11.79,3.51c-4.08-.51-8.12-1.21-12.14-2s-8-1.63-12-2.53-8-1.9-11.91-3S14.75,389.62,10.86,388.3Z" transform="translate(-3.75 -19.54)"/><line x1="779.02" y1="356.96" x2="738.16" y2="366.35"/><path class="cls-3" d="M782.76,376.5c-3.31,1.18-6.66,2.18-10,3.1s-6.76,1.76-10.16,2.57-6.83,1.5-10.27,2.13-6.89,1.21-10.39,1.59c3.32-1.19,6.67-2.19,10-3.11s6.77-1.76,10.17-2.56,6.82-1.51,10.27-2.13S779.27,376.88,782.76,376.5Z" transform="translate(-3.75 -19.54)"/><line x1="783.11" y1="361.87" x2="730.38" y2="373.98"/><path class="cls-3" d="M786.86,381.41c-4.3,1.41-8.65,2.63-13,3.78s-8.74,2.22-13.13,3.25-8.8,2-13.23,2.82-8.87,1.66-13.36,2.26c4.3-1.41,8.65-2.63,13-3.79s8.74-2.21,13.13-3.24,8.8-2,13.23-2.81S782.37,382,786.86,381.41Z" transform="translate(-3.75 -19.54)"/><line x1="776.09" y1="368.47" x2="728.24" y2="379.46"/><path class="cls-3" d="M779.84,388c-3.89,1.32-7.83,2.45-11.79,3.51s-7.93,2-11.91,3-8,1.78-12,2.54-8.06,1.48-12.14,2c3.9-1.33,7.83-2.45,11.79-3.51s7.93-2,11.91-3,8-1.77,12-2.53S775.76,388.52,779.84,388Z" transform="translate(-3.75 -19.54)"/><path d="M69,171.69s3.09-59-10.26-58-48.35,8-47.85,14-4.5,25,0,28,40.5,8,41.5,16S57.58,182.69,69,171.69Z" transform="translate(-3.75 -19.54)"/><path d="M725.29,171.69s-3.09-59,10.26-58,48.35,8,47.85,14,4.5,25,0,28-40.5,8-41.5,16S736.68,182.69,725.29,171.69Z" transform="translate(-3.75 -19.54)"/><path d="M734.13,133" transform="translate(-3.75 -19.54)"/><path class="cls-4" d="M734.13,140.69s2.29-21,5.51-21,22.29,5.67,25.75,13.33S734.13,140.69,734.13,140.69Z" transform="translate(-3.75 -19.54)"/><path d="M633.36,50.19s57.24,43,81.37,125.5C714.73,175.69,685.86,98.19,633.36,50.19Z" transform="translate(-3.75 -19.54)"/><path d="M57,196.69S13.61,228.25,9.11,244.47C9.11,244.47,8.31,228.69,57,196.69Z" transform="translate(-3.75 -19.54)"/><path d="M733.76,196.69s43.34,31.56,47.84,47.78C781.6,244.47,782.41,228.69,733.76,196.69Z" transform="translate(-3.75 -19.54)"/><path d="M151.86,269.47s325.75,7.28,487.12,0C639,269.47,170,274.59,151.86,269.47Z" transform="translate(-3.75 -19.54)"/><path d="M79.48,189.29s-15.77,36-12.08,43.5C67.4,232.79,66.36,228.51,79.48,189.29Z" transform="translate(-3.75 -19.54)"/><path d="M711.24,189.78s15.76,36,12.08,43.49C723.32,233.27,724.36,229,711.24,189.78Z" transform="translate(-3.75 -19.54)"/><path class="cls-5" d="M614.3,56s57,32,75,103C689.3,159,673.8,108,614.3,56Z" transform="translate(-3.75 -19.54)"/><path class="cls-6" d="M13.66,477.69s450.46,16.69,764.68,0C778.34,477.69,315.77,501.38,13.66,477.69Z" transform="translate(-3.75 -19.54)"/><path class="cls-6" d="M604.55,37S385.05-2,167.3,37C167.3,37,362.55,6,604.55,37Z" transform="translate(-3.75 -19.54)"/></svg>