<svg id="Layer_2" data-name="Layer 2" xmlns="http://www.w3.org/2000/svg" viewBox="0 0 471.59 678.33"><defs><style>.cls-1,.cls-2{fill:#fff;}.cls-2{stroke:#000;stroke-miterlimit:10;}</style></defs><title>letsgoplaces</title><path d="M0,732s305,3,319,0,141-22,139-29-6.95-6,0-28,16-144,13-157-13,85-11,88,2,14-2,14-187,18-197,19-34,3-42,1S0,639,0,639Z" transform="translate(0 -55)"/><path d="M0,496s190,1,198,5,58,52.84,58,81c0,16-6.74,23.62-20.2,32S196,623.15,189,625.07s-189,0-189,0Z" transform="translate(0 -55)"/><path d="M443,475.62S431,585,427,588s-90,25-101,20,68-118,77-123S434,462.25,443,475.62Z" transform="translate(0 -55)"/><path class="cls-1" d="M406,496s23-17,26-12,0,51,0,51-17.94-8-26-10c-4-1-22,2-22,2S395.88,502.81,406,496Z" transform="translate(0 -55)"/><path d="M0,69S244,79,256,86s80,81,92,143H0Z" transform="translate(0 -55)"/><path d="M397,172.33c20.68.94,52.67,16.67,54,21.34s-2,36.66-8,39.33-49.33,8.67-46,12.67-.18,13.33-.18,13.33-10.49-8.67-13.82-7.33S368.33,241,369.67,237,371,197,373,191.67,382.33,171.67,397,172.33Z" transform="translate(0 -55)"/><path class="cls-1" d="M383,191.67s-9.33,32.66,0,34.66,60-14,60-14S448.33,225,433.33,229,387.67,247,383,240.33,369,211,383,191.67Z" transform="translate(0 -55)"/><path d="M291,351.67s-170,4-196,4-95-2-95-2V347S130.33,352.33,291,351.67Z" transform="translate(0 -55)"/><path d="M464.33,378.5s-26.66,10.14-31,11S444.33,394,464.33,378.5Z" transform="translate(0 -55)"/><path d="M408.65,264.33s45,53.34,51.68,66S451.64,297.67,408.65,264.33Z" transform="translate(0 -55)"/><path d="M365.5,255s6.83,4,6.83,12-2.77,52.67-2.77,52.67S384.67,242.33,365.5,255Z" transform="translate(0 -55)"/><path d="M306,127.67S349.67,197,360.33,229,344.62,159.39,306,127.67Z" transform="translate(0 -55)"/><path d="M282,95s-24-25-42-26S11,55,0,55C0,55,258,62.33,282,95Z" transform="translate(0 -55)"/><path d="M389.36,358.87s38,30.5,10.26,62.5-86.75-11.5-86.75-11.5,49.5,35.5,80,8S389.36,358.87,389.36,358.87Z" transform="translate(0 -55)"/><path d="M319.37,418.87h-91.5s17-16,24.5-20.5,115-39.5,126-39.5l-124.5,44.5-.5,12,13,.5s52-21.74,54-19.87,19.5,24.37,24,25.37-31.5-20-34-16.5S319.37,418.87,319.37,418.87Z" transform="translate(0 -55)"/><circle cx="358.37" cy="344.37" r="15.5"/><path d="M397.37,390.14s6.51,28.73-27.75,35.23C369.62,425.37,394.37,417.41,397.37,390.14Z" transform="translate(0 -55)"/><path class="cls-1" d="M357,390.14s-7.91,11.47,0,17.62S335.48,399.91,357,390.14Z" transform="translate(0 -55)"/><path d="M393.42,504.51a109.52,109.52,0,0,1,10.51-4.58c1.77-.71,3.57-1.32,5.35-2l5.41-1.81c3.61-1.17,7.27-2.21,11-3.16a109.81,109.81,0,0,1,11.21-2.36,108,108,0,0,1-10.5,4.59c-3.56,1.36-7.14,2.63-10.76,3.78l-5.46,1.66c-1.83.5-3.65,1-5.5,1.49A107.91,107.91,0,0,1,393.42,504.51Z" transform="translate(0 -55)"/><path d="M393.42,509.88a107.08,107.08,0,0,1,10.51-4.58c1.77-.71,3.57-1.32,5.35-2l5.41-1.81q5.42-1.74,11-3.16A109.78,109.78,0,0,1,436.86,496a108,108,0,0,1-10.5,4.58q-5.34,2.06-10.76,3.79L410.14,506c-1.83.5-3.65,1.05-5.5,1.5A110.57,110.57,0,0,1,393.42,509.88Z" transform="translate(0 -55)"/><path d="M386.82,518c4-1.94,8.14-3.59,12.28-5.15,2.07-.8,4.17-1.51,6.25-2.26l6.29-2.1c4.22-1.35,8.47-2.58,12.75-3.72s8.59-2.17,13-2.93c-4,1.94-8.14,3.6-12.29,5.16s-8.33,3-12.54,4.35l-6.35,1.94c-2.13.6-4.25,1.24-6.4,1.78C395.53,516.16,391.22,517.2,386.82,518Z" transform="translate(0 -55)"/><circle class="cls-2" cx="393.12" cy="508.04" r="19.25"/><path d="M399.18,553.84s7.5,8.5,0,20S418.68,554.34,399.18,553.84Z" transform="translate(0 -55)"/></svg>