<svg id="Layer_2" data-name="Layer 2" xmlns="http://www.w3.org/2000/svg" viewBox="0 0 295.19 376.42"><defs><style>.cls-1,.cls-2{fill:none;stroke:#000;stroke-miterlimit:10;}.cls-1{stroke-width:1.09px;}.cls-2{stroke-width:0.89px;}.cls-3{fill:#fff;}.cls-4{fill:#231f20;}</style></defs><title>taillights</title><path d="M0,307s145.17,4.4,158.85,9.77S140.67,303.57,0,307Z" transform="translate(1.9 -306.57)"/><path d="M175.46,322.14s33.22,29.8,45.93,71.33C221.39,393.47,203.8,354.39,175.46,322.14Z" transform="translate(1.9 -306.57)"/><path d="M233.6,402.27s20.52,7.33,24.43,14.17,10.75,23,13.2,29.8S261.94,412,233.6,402.27Z" transform="translate(1.9 -306.57)"/><path d="M283,472.63s12.71,131.43-6.35,168.08C276.6,640.71,292.72,581.1,283,472.63Z" transform="translate(1.9 -306.57)"/><path class="cls-1" d="M241.42,416.93s-82.66-2.94-86,0,6.89,32.73,9.82,33.22,26.67,2.93,35.32,9.77,21.36,18.57,38,12.71S270.74,437,241.42,416.93Z" transform="translate(1.9 -306.57)"/><circle class="cls-2" cx="229.86" cy="136.32" r="15.07"/><circle cx="229.59" cy="148.8" r="2.62"/><circle cx="239.82" cy="142.29" r="2.62"/><circle cx="241.74" cy="136.32" r="2.62"/><circle cx="239.82" cy="130.35" r="2.62"/><circle cx="235.51" cy="125.59" r="2.62"/><circle cx="229.59" cy="124.3" r="2.62"/><circle cx="235.51" cy="147.05" r="2.62"/><circle cx="229.59" cy="136.32" r="6.54"/><circle cx="219.33" cy="142.29" r="2.62"/><circle cx="217.41" cy="136.32" r="2.62"/><circle cx="219.33" cy="130.35" r="2.62"/><circle cx="223.64" cy="125.59" r="2.62"/><circle cx="223.64" cy="147.05" r="2.62"/><path d="M243,426.33s17.07,15,0,34.85C243,461.18,263,442.45,243,426.33Z" transform="translate(1.9 -306.57)"/><path d="M156.75,421.57c5.39-.63,10.8-1.05,16.22-1.34s10.85-.4,16.27-.44,10.86.14,16.28.44c2.71.15,5.41.33,8.12.54s5.4.48,8.09.8l-8.12-.32c-2.71-.1-5.42-.19-8.12-.25-5.42-.14-10.83-.25-16.25-.21s-10.82.07-16.24.2S162.17,421.35,156.75,421.57Z" transform="translate(1.9 -306.57)"/><path d="M158,424.1c5.15-.61,10.32-1,15.5-1.29s10.36-.38,15.54-.43,10.38.14,15.55.43q3.88.22,7.76.52c2.58.24,5.17.46,7.74.77l-7.77-.28c-2.58-.1-5.17-.19-7.76-.25-5.17-.12-10.34-.23-15.52-.19s-10.34.07-15.51.19S163.14,423.9,158,424.1Z" transform="translate(1.9 -306.57)"/><path d="M159.08,426.64c4.94-.6,9.91-1,14.88-1.26s9.95-.37,14.93-.41,10,.13,14.93.41c2.49.15,5,.31,7.45.5s5,.46,7.43.76l-7.46-.27c-2.48-.09-5-.17-7.45-.22-5-.12-9.93-.22-14.9-.18s-9.93.06-14.9.17S164.06,426.46,159.08,426.64Z" transform="translate(1.9 -306.57)"/><path d="M160.1,429.18c4.63-.57,9.27-.95,13.93-1.21s9.31-.35,14-.39,9.32.13,14,.39c2.32.14,4.65.3,7,.48s4.64.43,7,.73l-7-.24c-2.32-.08-4.65-.15-7-.2-4.65-.1-9.3-.2-13.95-.16s-9.29.06-13.94.16S164.76,429,160.1,429.18Z" transform="translate(1.9 -306.57)"/><path d="M161.21,431.71c4.2-.54,8.43-.88,12.66-1.13s8.47-.32,12.71-.36,8.47.11,12.7.36q3.18.19,6.34.45c2.11.21,4.22.41,6.32.68l-6.35-.19q-3.17-.11-6.34-.17c-4.22-.09-8.45-.17-12.67-.14s-8.45.05-12.68.14S165.45,431.59,161.21,431.71Z" transform="translate(1.9 -306.57)"/><path d="M162.27,434.25c3.9-.52,7.81-.84,11.74-1.08s7.85-.3,11.78-.35,7.86.12,11.79.35q2.94.19,5.88.43c1.95.2,3.91.38,5.85.65l-5.88-.16c-2-.06-3.92-.12-5.88-.15-3.92-.08-7.84-.16-11.76-.12s-7.83.05-11.75.12S166.2,434.15,162.27,434.25Z" transform="translate(1.9 -306.57)"/><path d="M163.69,436.78c3.52-.48,7.07-.79,10.62-1s7.11-.31,10.67-.32,7.12.09,10.67.32c1.78.12,3.55.25,5.32.4s3.54.36,5.3.61l-10.65-.24c-3.55-.05-7.09-.1-10.64-.09s-7.09,0-10.64.09Z" transform="translate(1.9 -306.57)"/><path d="M165,439.32c3.33-.47,6.68-.76,10-1s6.72-.3,10.08-.31,6.73.09,10.08.31c1.68.12,3.36.24,5,.39s3.35.35,5,.59l-10.07-.21c-3.35,0-6.7-.09-10.05-.08s-6.7,0-10,.08Z" transform="translate(1.9 -306.57)"/><path d="M165.53,441.86c3.25-.47,6.52-.76,9.8-1s6.56-.29,9.85-.31,6.56.09,9.84.31c1.64.12,3.28.24,4.91.38s3.27.35,4.89.59l-9.83-.2c-3.27,0-6.54-.09-9.81-.08s-6.55,0-9.82.08Z" transform="translate(1.9 -306.57)"/><path d="M166.85,444.39c3.26-.46,6.55-.75,9.83-1s6.59-.3,9.88-.31,6.59.09,9.88.31c1.64.11,3.29.23,4.93.38s3.27.34,4.9.58l-9.86-.19c-3.28,0-6.56-.09-9.85-.08s-6.56,0-9.85.07Z" transform="translate(1.9 -306.57)"/><path d="M169.37,446.93c3.23-.46,6.49-.75,9.74-1s6.53-.3,9.79-.31,6.53.09,9.79.31c1.62.11,3.25.23,4.88.38s3.24.34,4.86.58l-9.77-.19c-3.26,0-6.51-.09-9.76-.08s-6.5,0-9.76.08Z" transform="translate(1.9 -306.57)"/><path d="M173.79,449.46c3-.44,6-.71,9-.91s6-.28,9-.29,6,.08,9,.29c1.51.11,3,.22,4.51.36s3,.33,4.48.55l-9-.14c-3,0-6-.08-9-.06s-6,0-9,.06Z" transform="translate(1.9 -306.57)"/><path d="M188.16,452A68.82,68.82,0,0,1,211,452c-3.82.1-7.61,0-11.4.05S192,452.09,188.16,452Z" transform="translate(1.9 -306.57)"/><path d="M195.53,454.54a41,41,0,0,1,16.41,0c-2.76.18-5.48.16-8.2.17S198.29,454.71,195.53,454.54Z" transform="translate(1.9 -306.57)"/><circle class="cls-3" cx="229.59" cy="136.32" r="3.46"/><path d="M237.21,466.76s-6.89,6.36-19.79,0C217.42,466.76,228.35,471.16,237.21,466.76Z" transform="translate(1.9 -306.57)"/><path d="M193.54,387.15s-1.26,18.35-4.3,23.42" transform="translate(1.9 -306.57)"/><path d="M162.27,458s-19.55,32.75-33.72,35.68S141.75,492.65,162.27,458Z" transform="translate(1.9 -306.57)"/><path d="M101.68,494.42H0S57.71,497.16,101.68,494.42Z" transform="translate(1.9 -306.57)"/><path d="M260,442.89s17.59,61.82,6.84,119.8C266.83,562.69,275.62,518.2,260,442.89Z" transform="translate(1.9 -306.57)"/><path d="M233.6,640.71s-15.06,1-20.72-19.55-21.3-63-33-67.43S0,550.8,0,550.8V662.2s120.24,1,124.64-3.9,3.43-13.2,7.33-15.15S191.58,647.55,233.6,640.71Z" transform="translate(1.9 -306.57)"/><path class="cls-3" d="M0,592.82s53.31-2.44,56.73,0S68.94,607.48,65,608.46s-65,0-65,0Z" transform="translate(1.9 -306.57)"/><path class="cls-3" d="M198.42,594.29s-6.35-19.55-20-22.48-148.53,0-148.53,0,148.53-6.84,151.46-4.39S194,575.72,198.42,594.29Z" transform="translate(1.9 -306.57)"/><path d="M237.21,410.57s-10.08-5.37-33.47-8.3C203.74,402.27,213.1,398.3,237.21,410.57Z" transform="translate(1.9 -306.57)"/><path d="M161.21,398.86S77.15,385.66,0,390.54C0,390.54,122,391.06,161.21,398.86Z" transform="translate(1.9 -306.57)"/><path d="M0,421.57H107.06S96.31,429,89,429.53s-89,1.34-89,1.34Z" transform="translate(1.9 -306.57)"/><path d="M193.54,379.79s-13.29-48.86-29.86-53.25S31.71,310.9,0,314.81V370S158.36,373.93,193.54,379.79Z" transform="translate(1.9 -306.57)"/><ellipse class="cls-3" cx="156.61" cy="299.2" rx="16.75" ry="11.48"/><ellipse class="cls-3" cx="179.87" cy="322.17" rx="16.75" ry="11.48"/><ellipse cx="156.61" cy="299.2" rx="14" ry="9.82"/><ellipse cx="179.87" cy="322.17" rx="14" ry="9.82"/><path class="cls-3" d="M95.68,574.26v64.3a5.05,5.05,0,0,0,3.42-4.21c.49-3.42,0-58.14,0-58.14S98.86,569.37,95.68,574.26Z" transform="translate(1.9 -306.57)"/><path d="M204.45,644.51s.83,25.83,6.82,34.63c10.66,4.67,69,5.43,77.28.37s4.17-110.74-.77-144.64.86,106.52-15.54,108.32-66.9-9.38-65.42-7S204.45,644.51,204.45,644.51Z" transform="translate(1.9 -306.57)"/><path class="cls-4" d="M260,618.91" transform="translate(1.9 -306.57)"/><path class="cls-4" d="M262.89,426.22s7.74-16.42,2.26-20.11-33-13-40.09-10.11C225.06,396,255.64,409.37,262.89,426.22Z" transform="translate(1.9 -306.57)"/><path class="cls-4" d="M189.24,550.57s22.54,34.16,29.87,58.32C219.11,608.89,199,562.22,189.24,550.57Z" transform="translate(1.9 -306.57)"/><path class="cls-4" d="M191.82,542.5s28.24,42,32.41,57.81C224.23,600.31,206.06,563.34,191.82,542.5Z" transform="translate(1.9 -306.57)"/><path class="cls-4" d="M230.31,602.11s32.93,3.18,42.71,1.95C273,604.06,241,605.69,230.31,602.11Z" transform="translate(1.9 -306.57)"/><path class="cls-4" d="M215.9,502.79s-135.23,3.78-217.8,0C-1.9,502.79,182.57,505.1,215.9,502.79Z" transform="translate(1.9 -306.57)"/><path class="cls-4" d="M166.85,534.68H0S125,537.61,166.85,534.68Z" transform="translate(1.9 -306.57)"/><path class="cls-4" d="M124.64,458s-22.34-60.93-41.21-62C83.43,396,99.72,397.92,124.64,458Z" transform="translate(1.9 -306.57)"/><path class="cls-4" d="M73.34,395.47,0,394.16S43.54,392.81,73.34,395.47Z" transform="translate(1.9 -306.57)"/><path class="cls-4" d="M150.05,384.19S81.54,370.51,0,374.91C0,374.91,101.19,375.88,150.05,384.19Z" transform="translate(1.9 -306.57)"/></svg>